<?xml version="1.0" encoding="utf-8"?>
<!-- Generator: Adobe Illustrator 24.1.2, SVG Export Plug-In . SVG Version: 6.00 Build 0)  -->
<svg version="1.1" id="Calque_1" xmlns="http://www.w3.org/2000/svg" xmlns:xlink="http://www.w3.org/1999/xlink" x="0px" y="0px"
	 viewBox="0 0 24.1 24.1" style="enable-background:new 0 0 24.1 24.1;" xml:space="preserve">
<style type="text/css">
	.st0{fill:#045084;}
	.st1{fill:#165784;}
	.st2{fill:#1C5F8C;}
	.st3{fill:#165988;}
	.st4{fill:#125787;}
	.st5{fill:#0D5788;}
	.st6{fill:#1A5780;}
	.st7{fill:#3F79A1;}
	.st8{fill:#6896B5;}
	.st9{fill:#0F1112;}
	.st10{fill:#8FB6D0;}
	.st11{fill:#2D6285;}
	.st12{fill:#A9C3D5;}
	.st13{fill:#889BA8;}
	.st14{fill:#EEF6F7;}
</style>
<g>
	<path class="st0" d="M6,9.6c0.1,0.2,0.2,0.4,0.3,0.7c-0.2,0-0.4-0.1-0.4,0.3c0,0.2-0.2,0.4-0.3,0.7c-0.1,0.3,0,0.3,0.2,0.3
		c0,0,0.1,0.1,0.1,0.1c0,0,0,0.1,0.1,0.1l0,0c0.1,0.9,0.2,1.8-0.1,2.6c0,0.1,0,0.2,0.2,0.1c0.1,0,0.1,0.1,0.1,0.2l0,0
		c-0.1,0.1-0.3,0.2-0.3,0.4c-0.2,0.4-0.4,0.7-0.8,0.7c-0.4,0-0.7-0.2-0.9-0.5c-0.3-0.4-0.4-0.9-0.6-1.4c0.1-0.6,0.1-1.2,0.1-1.8
		c0-0.1,0-0.2,0-0.3c0,0,0-0.1,0-0.1c0.1-0.2,0.1-0.4,0.2-0.7c0.4-1.1,0.8-1.3,1.9-1.2C5.9,9.6,6,9.6,6,9.6z"/>
	<path class="st1" d="M17,10.7c0,0.1,0,0.2,0,0.3c0,0.1,0,0.2-0.2,0.2c-0.1,0-0.1-0.1-0.2-0.2c0-0.1-0.1-0.3-0.1-0.4
		c0-0.1-0.1-0.3-0.3-0.3c-0.2,0-0.3,0.1-0.3,0.3c-0.1,0.4,0,0.6,0.3,0.8c0.9,0.6,1.2,1.8,0.6,2.6c-0.3,0.4-0.8,0.4-1.1,0
		c-0.3-0.4-0.4-0.8-0.3-1.2c0-0.1,0-0.3,0.2-0.3c0.2,0,0.2,0.1,0.2,0.3c0.1,0.2,0.1,0.4,0.1,0.5c0,0.2,0.2,0.3,0.3,0.3
		s0.3-0.1,0.3-0.3c0.2-0.4,0.1-0.8-0.3-1.1c-0.8-0.5-1-1.1-0.8-2c0.1-0.5,0.4-0.8,0.8-0.8c0.5,0,0.6,0.4,0.7,0.7
		C17,10.5,17,10.6,17,10.7z"/>
	<path class="st2" d="M23.7,12.4c-0.6,0.4-1.3,0.6-2,0.3c-0.4-0.2-0.8,0.1-1.1,0.4c-0.5-0.1-0.9-0.1-1.4,0c-0.3,0-0.6,0.2-0.9,0.1
		c0.2-0.4,0.5-0.8,1-1c1.6,0,3.1,0,4.7,0v0C23.8,12.2,23.7,12.3,23.7,12.4z"/>
	<path class="st3" d="M10.5,13.6c0,0.3-0.2,0.6-0.4,0.7C9.7,14.6,9.2,14.4,9,14c-0.2-0.4-0.2-0.8-0.2-1.2c0-0.8,0-1.7,0-2.5
		c0-0.1,0-0.2,0-0.2c0-0.1,0-0.3,0.2-0.3c0.2,0,0.2,0.2,0.2,0.3c0,0.7,0,1.3,0,2c0,0.4,0,0.8,0.1,1.2c0,0.2,0.1,0.5,0.4,0.5
		c0.3,0,0.4-0.3,0.4-0.5c0-0.1,0-0.2,0-0.3c0.2-0.1,0.3-0.1,0.3,0.2C10.5,13.2,10.5,13.4,10.5,13.6z"/>
	<path class="st4" d="M2.6,9.9c-0.6,0.8-0.9,1.8-1.1,2.8c-0.1,0.6-0.2,1.1-0.3,1.7c0,0.5-0.4,0.3-0.7,0.3c-0.4,0-0.2-0.3-0.1-0.4
		c0.3-1.6,0.9-3.1,1.9-4.4c0-0.1,0.1-0.1,0.2-0.2C2.4,9.8,2.5,9.9,2.6,9.9z"/>
	<path class="st0" d="M7,12.1c0-0.6,0-1.1,0-1.7c0-0.1,0-0.3,0-0.4C7,10,7.1,9.8,7.2,9.9c0.1,0,0.2,0.1,0.2,0.2c0,0.1,0,0.2,0,0.3
		c0,0.9,0,1.7,0,2.6c0,0.8,0,0.6,0.6,0.6c0.4,0,0.5,0.1,0.4,0.5c0,0,0,0.1,0,0.1c-0.4,0.3-0.8,0.1-1.2,0.1C7,14.3,7,14.1,7,13.9
		C7,13.3,7,12.7,7,12.1C7,12.1,7,12.1,7,12.1z"/>
	<path class="st5" d="M19,11.8c-0.3-0.2-0.5-0.4-0.7-0.7c0-0.2,0.2-0.1,0.3-0.1c0.7,0.1,1.3,0.3,2,0.1l0,0c0,0.1,0.1,0.1,0.2,0.1
		c0.3,0.3,0.7,0.3,1.1,0.2c0.5-0.2,1-0.1,1.4,0.2c0.1,0.3-0.1,0.3-0.3,0.3C21.6,11.8,20.3,11.8,19,11.8z"/>
	<path class="st4" d="M19.1,14.5c-0.4,0.5-0.9,0.8-1.6,0.7c-0.6,0-1.2,0-1.8-0.1c0.9,0,1.5-0.6,2-1.3c0.4,0.2,0.8,0.4,1.3,0.5
		C19,14.4,19,14.4,19.1,14.5z"/>
	<path class="st3" d="M17.5,10c-0.1-0.2-0.3-0.3-0.4-0.5c-0.4-0.4-0.9-0.6-1.5-0.7c0.2-0.2,0.4-0.1,0.5-0.1c0.5,0,1,0,1.5,0
		c0.6,0,1,0.3,1.4,0.7C18.5,9.8,18,9.9,17.5,10z"/>
	<path class="st6" d="M15,12.4c0,0.4,0,0.9-0.1,1.3c-0.1,0.4-0.3,0.7-0.8,0.7c-0.5,0-0.6-0.3-0.7-0.7c-0.2-0.5-0.1-1.1-0.1-1.7
		c0.1,0,0.3,0,0.4,0c0,0.3,0,0.6,0.1,0.9c0,0.3,0,0.6,0.4,0.7c0.4,0,0.4-0.4,0.5-0.6c0.1-0.2,0.1-0.4,0.2-0.5
		C14.8,12.5,14.9,12.4,15,12.4z"/>
	<path class="st3" d="M2.9,10.9c-0.3,0.8-0.4,1.6-0.5,2.4c0,0.4-0.1,0.9-0.1,1.3c0,0.2-0.1,0.2-0.3,0.2s-0.3-0.1-0.2-0.2
		c0.2-1.6,0.4-3.1,1.1-4.5c0,0,0,0,0,0C3,10.1,3,10.2,3,10.3c0,0,0,0.1,0,0.1C2.9,10.5,2.8,10.7,2.9,10.9z"/>
	<path class="st7" d="M5.9,11.5c-0.2,0-0.4,0-0.2-0.3c0.1-0.2,0.3-0.4,0.3-0.7c0-0.4,0.2-0.3,0.4-0.3c0.4,0.9,0.4,1.8,0.3,2.7
		c0,0.1-0.1,0.2-0.2,0.3c-0.1,0.4-0.2,0.7-0.4,1.1c-0.1,0.1-0.2,0-0.2-0.1c0.3-0.9,0.2-1.8,0.1-2.6c0.2,0,0.2,0.2,0.4,0.2
		c0-0.5-0.1-0.9-0.2-1.4C6,10.9,5.9,11.1,5.9,11.5z"/>
	<path class="st8" d="M19.1,14.5c0-0.1-0.1-0.1-0.2-0.2c-0.5,0-0.9-0.2-1.3-0.5c0.1-0.3,0.3-0.6,0.6-0.8c0.3,0.1,0.6-0.1,0.9-0.1
		c0.5,0,0.9-0.1,1.4,0c0,0.1-0.1,0.2-0.2,0.2c-0.5-0.1-1,0-1.4,0.1c-0.2,0.1-0.3,0.2-0.3,0.3c0,0.2,0.2,0.2,0.3,0.3
		c0.2,0.1,0.4,0.1,0.5,0.2C19.3,14.4,19.2,14.5,19.1,14.5z"/>
	<path class="st8" d="M20.5,11.1c-0.7,0.2-1.3,0.1-2-0.1c-0.1,0-0.2-0.1-0.3,0.1c-0.2-0.2-0.3-0.4-0.4-0.7c0.2-0.4,0.5-0.6,0.9-0.6
		c0.2,0,0.4,0,0.5-0.2c0.1,0.1,0.1,0.1,0.2,0.2c-0.2,0.1-0.4,0.2-0.5,0.3c-0.1,0.1-0.3,0.1-0.3,0.3c0,0.2,0.2,0.2,0.3,0.3
		c0.4,0.2,0.9,0.1,1.4,0.1C20.3,10.9,20.5,11,20.5,11.1z"/>
	<path class="st9" d="M11.4,10.7c0,0.3,0,0.6,0,1c0.3-0.4,0.4-0.8,0.6-1.1c0.2,0,0.4,0,0.5,0c-0.1,0.2-0.1,0.4-0.3,0.6
		c-0.2,0.3-0.2,0.6,0,0.9c-0.4,0-0.8-0.1-1.2-0.1c0-0.4,0-0.8,0-1.1C11.1,10.6,11.3,10.6,11.4,10.7z"/>
	<path class="st10" d="M6,9.6c0,0-0.1,0-0.1,0C4.8,9.5,4.4,9.8,4,10.8c-0.1,0.2-0.1,0.4-0.2,0.7c0,0,0,0.1,0,0.1c0,0.1,0,0.2,0,0.3
		c-0.1-0.1,0-0.4-0.2-0.5c0-0.1,0-0.1,0-0.2c0.1,0,0.2,0,0.1-0.2c0-0.1,0-0.1,0-0.2c-0.1-0.1,0.2-0.2,0.1-0.4c0-0.1,0.1-0.2,0.1-0.3
		C4,10.2,4,10.1,4,10c0-0.1,0.1-0.3,0.1-0.4c0,0,0,0,0.1,0c0,0,0.1,0.1,0.1,0.1C4.6,9.1,5.1,9,5.6,9.1l0,0c0,0.2,0.1,0.3,0.3,0.2
		C6,9.3,6,9.5,6,9.6z"/>
	<path class="st11" d="M14.7,12.5c0,0.2-0.1,0.4-0.2,0.5c0-0.9,0-1.8,0-2.7c0-0.1,0-0.2,0-0.2c0-0.2,0-0.5,0.2-0.5
		c0.2,0,0.2,0.3,0.2,0.4c0,0.4,0,0.8,0,1.3c0,0.2-0.1,0.4-0.2,0.5C14.5,12,14.6,12.2,14.7,12.5z"/>
	<path class="st12" d="M19.4,14.2c-0.1-0.2-0.4-0.1-0.5-0.2c-0.1-0.1-0.3-0.1-0.3-0.3c0-0.2,0.2-0.3,0.3-0.3
		c0.5-0.2,0.9-0.2,1.4-0.1c-0.1,0.3-0.4,0.3-0.7,0.3c-0.2,0-0.3,0.1-0.1,0.3C19.7,14,19.5,14.1,19.4,14.2z"/>
	<path class="st12" d="M20.3,10.8c-0.5,0-1,0.1-1.4-0.1c-0.1-0.1-0.3-0.1-0.3-0.3c0-0.2,0.2-0.2,0.3-0.3c0.2-0.1,0.4-0.2,0.5-0.3
		c0.1,0,0.3,0.2,0.2,0.3c-0.3,0.5,0.1,0.4,0.4,0.5C20.1,10.6,20.2,10.7,20.3,10.8z"/>
	<path class="st11" d="M12.5,12.7c0.2,0.4,0.4,0.9,0.4,1.4c0,0.1,0,0.3-0.2,0.4c-0.2,0-0.2-0.2-0.3-0.3c-0.1-0.4-0.2-0.7-0.3-1.1
		C12.1,12.8,12.2,12.6,12.5,12.7z"/>
	<path class="st13" d="M12.5,12.7c-0.3,0-0.4,0.1-0.4,0.4c-0.2-0.2-0.1-0.5-0.2-0.7c-0.2,0.1-0.1,0.3-0.3,0.3
		c-0.2-0.1-0.3-0.1-0.5-0.1c0-0.2,0-0.5,0-0.7c0.4,0,0.8,0.1,1.2,0.1C12.4,12.2,12.5,12.4,12.5,12.7z"/>
	<path class="st9" d="M13.6,12c-0.1,0-0.3,0-0.4,0c-0.1-0.4,0-0.8,0-1.3c0.1,0,0.2,0,0.3,0c0,0,0.1,0,0.1,0
		C13.7,11.2,13.7,11.6,13.6,12z"/>
	<path class="st8" d="M10.5,13.6c0-0.2,0-0.4,0-0.6c0-0.3-0.1-0.3-0.3-0.2c0-0.5,0-0.9,0-1.4c0.1,0.2,0.1,0.4,0.4,0.4
		C10.5,12.4,10.7,13,10.5,13.6z"/>
	<path class="st6" d="M19,11.8c1.3,0,2.7,0,4,0c0.2,0,0.4,0,0.3-0.3c0.2,0,0.4,0.2,0.5,0.3c-0.1,0.1-0.3,0.1-0.4,0.1
		c-1.4,0-2.8,0-4.2,0C19.1,11.9,19,11.9,19,11.8z"/>
	<path class="st13" d="M3.6,11.4c0.1,0.1,0,0.4,0.2,0.5c0,0.6,0,1.2-0.1,1.8C3.5,13,3.4,12.2,3.6,11.4z"/>
	<path class="st6" d="M12.6,10.6c-0.2,0-0.4,0-0.5,0c0.1-0.2,0.2-0.5,0.3-0.7c0-0.1,0.1-0.2,0.2-0.1c0.1,0,0.1,0.1,0.2,0.2
		C12.8,10.1,12.7,10.4,12.6,10.6z"/>
	<path class="st4" d="M11.4,14.3C11,14.5,11,14.2,11,14.1c0-0.3,0-0.6,0-0.9c0.3,0,0.4,0.1,0.4,0.3C11.4,13.7,11.4,14,11.4,14.3z"/>
	<path class="st10" d="M19.2,12c1.4,0,2.8,0,4.2,0c0.1,0,0.3,0.1,0.4-0.1c0.1,0,0.1,0.1,0.1,0.2C22.3,12,20.7,12,19.2,12
		C19.2,12,19.2,12,19.2,12z"/>
	<path class="st11" d="M11.4,10.7c-0.2,0-0.3,0-0.4,0.1c0-0.3,0-0.6,0-0.9c0-0.1,0.1-0.2,0.2-0.2c0.1,0,0.1,0.1,0.2,0.2
		C11.5,10.1,11.5,10.4,11.4,10.7z"/>
	<path class="st14" d="M19.2,12c1.6,0,3.1,0,4.7,0c0,0,0,0.1,0,0.1c-1.6,0-3.1,0-4.7,0C19.2,12.1,19.2,12.1,19.2,12z"/>
	<path class="st9" d="M10.5,11.8c-0.3,0.1-0.3-0.2-0.4-0.4c0-0.1,0-0.2,0-0.3c0-0.1,0-0.2,0.1-0.4c0.1,0,0.2,0,0.3,0
		C10.5,11.1,10.5,11.5,10.5,11.8z"/>
	<path class="st6" d="M10.5,10.8c-0.1,0-0.2,0-0.3,0c0-0.3,0-0.6,0-0.9c0.2-0.3,0.3-0.2,0.4,0C10.6,10.2,10.6,10.5,10.5,10.8z"/>
	<path class="st7" d="M19.2,9.7c-0.1,0.2-0.3,0.1-0.5,0.2c-0.4,0.1-0.7,0.3-0.9,0.6c-0.1-0.1-0.2-0.3-0.3-0.4c0.5-0.2,1-0.3,1.5-0.6
		C19.1,9.5,19.1,9.6,19.2,9.7z"/>
	<path class="st7" d="M11.4,14.3c0-0.3,0-0.6,0-0.9c0-0.3-0.1-0.4-0.4-0.3c0-0.1,0-0.2,0-0.3c0,0,0,0,0,0c0,0,0,0,0-0.1
		c0-0.1,0-0.1,0-0.2c0.2,0,0.4,0,0.5,0.1c-0.2,0.4-0.1,0.7-0.1,1.1C11.5,13.9,11.5,14.1,11.4,14.3z"/>
	<path class="st11" d="M5.6,9.1c-0.5-0.1-1,0-1.3,0.4c0,0-0.1,0-0.1-0.1c0,0,0,0,0-0.1C4.6,8.8,5.2,8.7,5.6,9.1z"/>
	<path class="st11" d="M3,10.3c0-0.1,0-0.2-0.1-0.3C3,9.7,3.2,9.5,3.4,9.3c0,0,0.1-0.1,0.1-0.1l0,0c0,0,0.1-0.1,0.1-0.1l0,0
		c0,0,0.1,0,0.1,0C3.6,9.5,3.2,9.9,3,10.3z"/>
	<path class="st2" d="M13.5,10.7c-0.1,0-0.2,0-0.3,0c0-0.3,0-0.6,0.1-0.9c0,0.2,0,0.3,0,0.6c0.1-0.3,0-0.5,0.3-0.7
		C13.5,10.2,13.5,10.5,13.5,10.7z"/>
	<path class="st2" d="M6.1,14.4c0.1-0.4,0.2-0.7,0.4-1.1c0.1,0.5,0,0.9-0.3,1.3C6.2,14.5,6.2,14.4,6.1,14.4z"/>
	<path class="st6" d="M2.6,9.9c0-0.1-0.1-0.1-0.2-0.2c0.2-0.3,0.4-0.6,0.9-0.7C3,9.4,2.7,9.6,2.6,9.9z"/>
	<path class="st6" d="M13.5,10.7c0-0.3,0-0.5,0-0.9c-0.2,0.2-0.1,0.4-0.3,0.7c0-0.3,0-0.5,0-0.6c0-0.1,0-0.2,0.1-0.2
		c0.1,0,0.2,0.1,0.2,0.2C13.7,10.2,13.7,10.5,13.5,10.7C13.6,10.8,13.6,10.8,13.5,10.7z"/>
	<path class="st0" d="M14.7,12.5c-0.1-0.2-0.2-0.4,0.1-0.6c0.3,0.1,0.2,0.3,0.2,0.5C14.9,12.4,14.8,12.5,14.7,12.5z"/>
	<path class="st14" d="M4.1,8.8C4,9.1,3.8,8.9,3.6,8.9c0,0,0-0.1,0-0.1c0-0.1,0-0.2,0.2-0.3C4,8.5,4,8.7,4.1,8.8L4.1,8.8z"/>
	<path class="st8" d="M10.2,9.9c0,0.3,0,0.6,0,0.9c0,0.1,0,0.2-0.1,0.4C10.1,10.7,10,10.3,10.2,9.9z"/>
	<path class="st14" d="M4.1,8.8C4.1,8.8,4.1,8.7,4.1,8.8c0-0.2,0-0.3,0.1-0.4c0.1,0,0.1,0,0.1,0.1C4.4,8.7,4.3,8.8,4.1,8.8L4.1,8.8z
		"/>
	<path class="st7" d="M3.7,8.8c0,0,0,0.1,0,0.1l0,0c0,0-0.1,0,0,0.1l0,0c0,0-0.1,0-0.1,0c-0.1,0-0.1,0-0.2,0c-0.1,0,0-0.1,0-0.1
		C3.5,8.8,3.5,8.8,3.7,8.8z"/>
	<path class="st14" d="M2.9,10.9c0-0.2,0-0.3,0.2-0.4C3,10.6,3,10.7,2.9,10.9z"/>
	<path class="st14" d="M3.7,10.5c0.1,0.1-0.1,0.2-0.1,0.4C3.5,10.7,3.6,10.6,3.7,10.5z"/>
	<path class="st2" d="M5.9,15c0-0.2,0.1-0.3,0.3-0.4C6.2,14.8,6.1,14.9,5.9,15z"/>
	<path class="st14" d="M4,9.9c0,0.1,0,0.2-0.1,0.3C3.7,10,3.8,10,4,9.9z"/>
	<path class="st11" d="M5.8,9.3c-0.2,0.1-0.3,0-0.3-0.2C5.7,9.2,5.7,9.3,5.8,9.3z"/>
	<path class="st13" d="M3.7,11.1c0.1,0.1,0,0.2-0.1,0.2C3.6,11.2,3.7,11.1,3.7,11.1z"/>
	<path class="st14" d="M23.7,12.4c0.1-0.1,0.1-0.1,0.2-0.2C23.9,12.3,23.8,12.4,23.7,12.4z"/>
	<path class="st14" d="M4.6,8.4C4.6,8.5,4.6,8.5,4.6,8.4C4.6,8.5,4.5,8.5,4.6,8.4C4.5,8.5,4.5,8.5,4.6,8.4C4.5,8.5,4.6,8.4,4.6,8.4z
		"/>
	<path class="st8" d="M20.7,11.2c-0.1,0-0.1,0-0.2-0.1C20.6,11.1,20.7,11.2,20.7,11.2z"/>
	<path class="st14" d="M3.5,9C3.5,9,3.5,9,3.5,9c0.1,0.1,0,0.1,0,0.1C3.5,9.1,3.5,9.1,3.5,9z"/>
	<path class="st14" d="M4.2,9.4C4.2,9.4,4.2,9.5,4.2,9.4C4.2,9.5,4.1,9.5,4.2,9.4C4.1,9.5,4.2,9.4,4.2,9.4z"/>
	<path class="st14" d="M3.5,9.1c0,0-0.1,0.1-0.1,0.1C3.4,9.2,3.5,9.2,3.5,9.1z"/>
	<path class="st14" d="M3.6,9c-0.1-0.1,0-0.1,0-0.1C3.6,9,3.7,9,3.6,9C3.6,9,3.6,9,3.6,9z"/>
	<path class="st13" d="M11,12.8C11,12.8,11.1,12.8,11,12.8C11.1,12.8,11,12.8,11,12.8C11,12.8,11,12.8,11,12.8z"/>
	<path class="st8" d="M5.9,11.5c0-0.3,0.2-0.6,0.3-1c0.2,0.5,0.3,0.9,0.2,1.4c-0.1,0-0.2-0.2-0.4-0.2l0,0C6,11.6,6,11.6,5.9,11.5
		C5.9,11.5,5.9,11.5,5.9,11.5z"/>
	<path class="st13" d="M3.8,11.6C3.8,11.6,3.8,11.5,3.8,11.6C3.8,11.5,3.8,11.6,3.8,11.6z"/>
	<path class="st7" d="M5.9,11.6C6,11.6,6,11.6,5.9,11.6C6,11.6,6,11.6,5.9,11.6z"/>
</g>
</svg>
