<?xml version="1.0" encoding="utf-8"?>
<!-- Generator: Adobe Illustrator 24.1.2, SVG Export Plug-In . SVG Version: 6.00 Build 0)  -->
<svg version="1.1" id="Calque_2_1_" xmlns="http://www.w3.org/2000/svg" xmlns:xlink="http://www.w3.org/1999/xlink" x="0px"
	 y="0px" viewBox="0 0 479 91" style="enable-background:new 0 0 479 91;" xml:space="preserve">
<style type="text/css">
	.st0{fill:#045084;}
	.st1{fill:#165784;}
	.st2{fill:#1C5F8C;}
	.st3{fill:#165988;}
	.st4{fill:#125787;}
	.st5{fill:#0D5788;}
	.st6{fill:#1A5780;}
	.st7{fill:#3F79A1;}
	.st8{fill:#6896B5;}
	.st9{fill:#0F1112;}
	.st10{fill:#8FB6D0;}
	.st11{fill:#2D6285;}
	.st12{fill:#A9C3D5;}
	.st13{fill:#889BA8;}
	.st14{fill:#EEF6F7;}
</style>
<g>
	<path class="st0" d="M165.5,16.3c1.8,2.5,2.8,5.4,3.7,8.3c-2.7-0.4-5.1-1.5-5.4,3.1c-0.1,2.7-2.1,5.4-3.4,8.1
		c-1.6,3.3,0.3,3.4,2.7,3.1c0.4,0.4,0.9,0.9,1.2,1.2c0.3,0.4,0.6,0.7,0.9,1.2l0,0c1.3,10.9,2.7,21.6-0.9,32.4
		c-0.6,1.6,0.1,2.7,1.9,1.2c1,0.4,1,1.5,1.3,2.4l0,0c-1.5,1.3-3.4,2.2-3.4,4.8c-1.9,4.5-4.5,8.5-9.8,8.9c-5.2,0.4-8.5-2.8-11.3-6.7
		c-3.7-5.2-5.5-11.2-7-17.3c0.9-7.5,1-14.9,0.9-22.4c0.1-1.3,0.3-2.8,0.4-4.2c0.1-0.4,0.3-0.7,0.4-1.2c0.7-2.7,1.5-5.4,2.4-8.1
		c4.8-13.4,9.5-16.4,23.6-14.8C164.3,16.6,164.9,16.4,165.5,16.3z"/>
	<path class="st1" d="M300.4,29.8c-0.1,1.2-0.1,2.2-0.4,3.4c-0.3,1-0.6,2.2-1.9,2.4c-1.5,0.1-1.8-1.2-2.1-2.1
		c-0.6-1.6-0.9-3.3-1.5-4.8c-0.6-1.8-1.6-3.4-3.9-3.4c-2.4,0-3.6,1.8-4.2,3.9c-1.3,4.5,0.3,7.5,4.2,9.8c11.2,6.9,14.5,21.8,7.2,32.7
		c-3.1,4.8-9.7,5.2-13.3,0.6c-3.3-4.3-4.3-9.4-4-14.8c0-1.3,0.3-3.3,2.1-3.6c2.1-0.3,2.1,1.8,2.5,3.1c0.7,2.1,1,4.3,1.8,6.4
		c0.6,1.9,1.9,3.3,4,3.3s3.3-1.5,4.2-3.3c2.4-4.8,0.9-10.3-3.7-13.1c-9.4-5.8-12.2-13.3-9.7-24.2c1.5-6.1,4.8-9.7,9.4-9.4
		c5.7,0.3,7.3,4.8,8.8,9.2C300.2,27.3,300.2,28.6,300.4,29.8z"/>
	<path class="st2" d="M382.7,50.3c-7.9,4.8-16.1,7-25.2,3.6c-5.4-1.9-9.5,1.3-13.6,4.3c-5.8-1.5-11.5-1-17.4-0.4
		c-3.9,0.4-7.5,2.8-11.5,1.6c3-5.2,6.7-9.5,12.4-11.9c19.2,0,38.5,0,57.9,0v0.4C384.3,48.6,383.6,49.5,382.7,50.3z"/>
	<path class="st3" d="M220,65c-0.6,3.6-1.9,6.9-4.9,9.1c-4.2,3.1-10.4,1-13.1-4.2c-2.4-4.8-2.7-10-2.8-15.2
		C199,44.3,199,34,199,23.6c0-0.9,0-1.9,0.3-2.8c0.3-1.5,0.3-3.7,2.5-3.7c2.1,0.1,2.4,2.2,2.4,3.9c0.1,8.2,0.1,16.4,0.1,24.5
		c0,4.8,0,9.7,0.9,14.5c0.4,2.8,1.2,5.8,4.6,6.1c4,0.3,4.6-3.1,5.4-6c0.3-1.2,0.4-2.5,0.6-3.9c2.4-1.6,4-1.5,4.2,1.9
		C220,60.2,220,62.6,220,65z"/>
	<path class="st4" d="M122.4,20.1c-7.9,10.4-11,22.7-14.2,34.9c-1.6,6.9-2.8,13.9-3.6,20.9c-0.6,6.4-5.1,4.2-8.2,4.2
		c-4.8,0-2.1-3.4-1.6-5.2C99,55.2,106,36.5,118,20.1c0.6-0.9,1.6-1.5,2.4-2.2C121,18.8,121.8,19.5,122.4,20.1z"/>
	<path class="st0" d="M176.9,46.7c0-6.9,0-13.7,0-20.6c0-1.5-0.1-3.1,0.4-4.3c0.4-0.9,0.7-2.8,2.5-2.5c1.3,0.3,2.1,1.3,2.2,2.8
		c0,1.3,0,2.5,0,3.9c0,10.7,0,21.5,0,32.2c0,9.4,0.1,7.8,7.8,7.8c5.2,0,6.7,1.8,5.4,6c-0.1,0.3-0.1,0.9-0.4,1
		c-4.5,3.1-9.7,1.2-14.5,1.3c-3.3,0.1-3.4-3-3.4-5.4C176.9,61.4,177.1,54,176.9,46.7C177.1,46.7,177.1,46.7,176.9,46.7z"/>
	<path class="st5" d="M324.8,43.7c-4-1.9-6.7-5.1-8.9-8.9c0.4-2.5,2.1-1.3,3.3-1c8.2,1.8,16.4,3.1,24.8,0.9l0,0c0.3,1,1,1.3,1.9,1.3
		c4.2,3.7,8.9,3.9,14.2,2.1c6.1-2.1,12.1-1.6,17.6,2.1c1,3.4-1,3.4-3.4,3.4C357.6,43.7,341.2,43.7,324.8,43.7z"/>
	<path class="st4" d="M325.9,76.9c-5.2,6.1-11.3,9.4-19.8,8.8c-7.5-0.6-14.9-0.1-22.7-0.9c11.5-0.3,18.5-7.5,24.8-15.5
		c4.8,3,9.8,5.1,15.5,5.7C324.8,75.2,325.7,75.6,325.9,76.9z"/>
	<path class="st3" d="M306.9,21.5c-1.8-2.1-3.6-4.2-5.4-6.3c-4.8-5.4-10.9-7.9-18.3-8.1c2.2-1.9,4.5-1.3,6.7-1.3
		c6.1,0,12.2,0.1,18.3-0.1c7.5-0.3,12.5,3.1,16.7,8.8C319.3,17.9,312.9,19.2,306.9,21.5z"/>
	<path class="st6" d="M275.6,50.4c0.4,5.4,0.3,10.7-1.2,16c-1.3,4.8-3.7,9.1-9.7,8.9c-5.7-0.1-7.9-4-9.2-8.8
		c-1.9-6.7-1.2-13.7-1.5-20.6c1.6,0,3.3,0.1,4.9,0.1c0.1,3.9,0.3,7.8,0.7,11.6c0.4,3.4,0.4,7.9,5.1,8.1c4.9,0.3,4.5-4.5,5.7-7.6
		c1.5-1.9,1.5-4.5,2.1-6.7C273.6,51.1,274.6,50.7,275.6,50.4z"/>
	<path class="st3" d="M126.2,31.5c-3.1,9.7-4.8,19.8-5.8,30c-0.6,5.4-0.9,10.7-1.2,16.1c-0.1,2.7-1.6,2.8-3.7,2.8
		c-2.1,0-3.1-0.7-2.8-3c2.2-19.2,5.2-38.2,14.2-55.6c0.1-0.1,0.3-0.3,0.3-0.4c1.3,0.9,0.9,2.2,1,3.4c0,0.3,0,0.7,0,1
		C126.8,27.4,125.9,29.2,126.2,31.5z"/>
	<path class="st7" d="M163.1,39.1c-2.4,0.1-4.3,0.1-2.7-3.1c1.3-2.7,3.3-5.2,3.4-8.1c0.3-4.6,2.7-3.6,5.4-3.1
		c4.3,10.9,4.3,22.4,3.6,33.8c-0.1,1.5-0.9,2.4-2.1,3.1c-1.5,4.5-3,8.9-4.5,13.3c-1.8,1.6-2.5,0.6-1.9-1.2
		c3.6-10.7,2.2-21.6,0.9-32.4c1.9-0.3,2.5,1.9,4.3,2.4c0.6-5.7-0.9-10.7-2.7-17.1C165,31.6,163.1,35,163.1,39.1z"/>
	<path class="st8" d="M325.9,76.9c-0.1-1.3-1-1.8-2.2-1.9c-5.7-0.6-10.7-2.7-15.5-5.7c1.8-3.7,4-7,6.9-10c4,1.2,7.6-1.3,11.5-1.6
		c5.8-0.6,11.6-1,17.4,0.4c-0.4,1.5-1.8,1.9-2.8,2.7c-6-0.9-11.8-0.6-17.4,1.5c-1.9,0.7-3.9,1.9-3.9,4.2c-0.1,2.4,2.2,2.7,3.7,3.7
		c1.9,1.5,4.8,0.7,6.6,2.7C328.7,74.6,327.8,76.2,325.9,76.9z"/>
	<path class="st8" d="M344.1,34.7c-8.3,2.2-16.5,0.9-24.8-0.9c-1.2-0.3-3-1.5-3.3,1c-2.5-2.2-4-5.1-5.4-8.1
		c2.2-4.5,5.7-6.9,10.6-7.9c2.1-0.4,4.5-0.3,6.1-2.2c0.7,0.7,1.5,1.6,2.2,2.4c-2.1,1-4.3,1.9-6.4,3.1c-1.5,0.9-3.9,1-3.6,3.6
		c0.3,1.9,2.1,2.8,3.7,3.7c5.5,2.8,11.5,1.8,17.3,1.8C341.8,32.4,343.5,33,344.1,34.7z"/>
	<path class="st9" d="M232.1,29.2c0,3.9,0,7.6,0,12.8c3.7-4.9,4.6-9.8,7.2-14c2.1,0,4.3,0.1,6.4,0.1c-1,2.4-1.8,4.8-3.1,7
		c-2.2,3.6-2.2,7.2-0.3,10.7c-4.9-0.6-10-1-14.9-1.6c-0.1-4.6-0.1-9.4-0.3-14C228.4,28.8,230.2,28.8,232.1,29.2z"/>
	<path class="st10" d="M165.5,16.3c-0.6,0.1-1,0.3-1.6,0.3c-13.9-1.6-18.8,1.3-23.6,14.8c-0.9,2.7-1.6,5.4-2.4,8.1
		c-0.1,0.4-0.3,0.7-0.4,1.2c-0.1,1.3-0.3,2.8-0.4,4.2c-1.6-1.8-0.4-4.5-1.9-6.3c0-0.9,0-1.8,0.1-2.7c1.3-0.1,2.5-0.3,1.2-1.9
		c-0.1-0.7-0.3-1.6-0.4-2.4c-0.7-1.6,2.5-2.4,0.9-4.3c0.6-1.2,1.2-2.4,1.6-3.4c1.3-0.7,1.5-2.1,1.8-3.4c0.4-1.8,0.9-3.7,1.5-5.5
		c0.3,0,0.6-0.1,0.9-0.1c0.4,0.3,1,0.7,1,0.7c4.2-5.4,9.5-6.6,16-5.1l0,0c-0.3,2.5,0.7,3.3,3.1,2.5
		C164.9,12.8,164.9,14.9,165.5,16.3z"/>
	<path class="st11" d="M272.5,51.4c-0.6,2.2-0.7,4.8-2.1,6.7c0-10.9,0-21.8,0.1-32.8c0-0.9-0.1-1.9,0-2.8c0.4-2.2-0.3-5.7,3-5.7
		c2.7,0,2.5,3.3,2.5,5.4c0.1,5.2,0,10.4,0.1,15.5c0,2.4-0.7,4.3-2.4,5.8C270.3,45.9,270.9,48.6,272.5,51.4z"/>
	<path class="st12" d="M329.8,72.9c-1.8-1.9-4.6-1.3-6.6-2.7c-1.5-1-3.7-1.3-3.7-3.7c0.1-2.4,1.9-3.4,3.9-4.2
		c5.7-2.1,11.5-2.4,17.4-1.5c-1.6,3.7-5.2,3.6-8.5,4c-2.4,0.3-3.9,0.9-1.3,3.1C333.9,70.5,331.5,71.7,329.8,72.9z"/>
	<path class="st12" d="M340.6,31.3c-5.8,0-11.8,1-17.3-1.8c-1.6-0.9-3.4-1.8-3.7-3.7c-0.3-2.5,2.1-2.7,3.6-3.6
		c2.1-1.2,4.3-2.1,6.4-3.1c1.3,0.6,3.1,2.4,2.7,3.1c-3.6,5.8,1.6,4.9,4.3,5.8C338.4,28.6,339.8,29.7,340.6,31.3z"/>
	<path class="st11" d="M244.5,53.8c1.9,5.5,4.6,11,4.6,17.1c0,1.8,0,4-2.4,4.3c-2.1,0.1-2.7-1.9-3.1-3.4c-1.3-4.5-2.5-8.9-3.7-13.4
		C240,55.3,241,53.4,244.5,53.8z"/>
	<path class="st13" d="M244.5,53.8c-3.4-0.4-4.5,1.6-4.6,4.5c-1.9-2.5-1.5-5.8-3-8.6c-2.2,0.7-1.8,3.3-3.4,4.2
		c-1.9-1.3-4.2-1.2-6.4-1c-0.4-2.8-0.6-5.7,0.3-8.5c4.9,0.6,10,1,14.9,1.6C243.3,48.5,244.5,50.9,244.5,53.8z"/>
	<path class="st9" d="M258.9,46.1c-1.6,0-3.3-0.1-4.9-0.1c-1-5.2-0.6-10.4-0.3-15.7c1.3-0.1,2.8-0.1,4.2-0.3c0.3,0.1,0.7,0.3,1,0.3
		C259.4,35.6,259.4,40.9,258.9,46.1z"/>
	<path class="st8" d="M220,65c0-2.4,0-4.6,0-7c-0.1-3.4-1.8-3.6-4.2-1.9c-0.1-5.7-0.6-11.3,0.1-17c0.7,2.4,1.2,5.4,4.9,4.5
		C220.9,50.7,222.3,58,220,65z"/>
	<path class="st6" d="M324.8,43.7c16.4,0,33,0,49.4,0c2.5,0,4.5-0.1,3.4-3.4c2.5,0.4,4.3,2.4,6.4,3.6c-1.5,1.8-3.4,1-5.2,1
		C361.5,45,344.2,45,326.9,45C326.3,44.6,325.6,44.1,324.8,43.7z"/>
	<path class="st13" d="M135,38.5c1.5,1.8,0.3,4.5,1.9,6.3c0,7.5,0,14.9-0.9,22.4C133.5,57.6,132.5,48,135,38.5z"/>
	<path class="st6" d="M245.7,28.2c-2.1,0-4.3-0.1-6.4-0.1c1.3-3,2.5-6.1,3.9-9.1c0.4-1,1-2.1,2.4-1.8c1.3,0.1,1.8,1.3,1.9,2.4
		C248.2,22.5,247.9,25.7,245.7,28.2z"/>
	<path class="st4" d="M231.1,74c-4,2.7-4.2-1-4.5-3c-0.3-3.7,0-7.6,0.1-11.5c3.1-0.4,4.5,0.7,4.3,4C231.1,66.8,231.1,70.4,231.1,74z
		"/>
	<path class="st10" d="M327.1,45c17.3,0,34.6-0.1,51.9-0.1c1.8,0,3.7,0.7,5.2-1c1.2,0.1,1.2,1.2,1.2,2.1c-19.4,0-38.8,0-58,0
		C327.1,45.6,327.1,45.3,327.1,45z"/>
	<path class="st11" d="M232.1,29.2c-1.9-0.4-3.6-0.3-5.1,1.2c-0.4-3.7-0.6-7.3,0.3-11c0.3-1.2,0.9-2.5,2.5-2.4
		c1.3,0.1,1.8,1.3,2.1,2.4C232.5,22.5,232.4,25.8,232.1,29.2z"/>
	<path class="st14" d="M327.2,45.9c19.4,0,38.8,0,58,0c0,0.6-0.1,1-0.1,1.6c-19.2,0-38.5,0-57.9,0C327.2,47,327.2,46.4,327.2,45.9z"
		/>
	<path class="st9" d="M220.9,43.5c-3.7,0.9-4.2-2.1-4.9-4.5c0-1.3,0-2.8,0-4.2c0.3-1.5,0.6-2.8,1-4.3c1.3,0,2.7-0.1,4-0.1
		C220.9,34.7,220.9,39.2,220.9,43.5z"/>
	<path class="st6" d="M220.9,30.4c-1.3,0-2.7,0.1-4,0.1c-0.1-3.9-0.3-7.8-0.4-11.6c1.9-4,3.6-2.4,4.3,0.6
		C221.7,23.1,221.4,26.8,220.9,30.4z"/>
	<path class="st7" d="M327.4,16.7c-1.6,1.9-4,1.8-6.1,2.2c-4.9,1-8.3,3.4-10.6,7.9c-1.2-1.8-2.5-3.6-3.7-5.4
		c6.1-2.1,12.4-3.6,18-6.9C326.3,14.6,326.8,15.8,327.4,16.7z"/>
	<path class="st7" d="M231.1,74c0-3.6-0.1-7,0-10.6c0.1-3.3-1.2-4.5-4.3-4c0-1.2,0-2.2,0-3.4c0.1-0.1,0.3-0.3,0.3-0.3
		c0-0.3-0.1-0.6-0.3-0.9c0-0.7,0-1.3,0-2.1c2.2-0.1,4.5-0.1,6.4,1c-1.9,4.3-0.7,8.8-1,13.1C232.3,69.3,233,71.9,231.1,74z"/>
	<path class="st11" d="M159.6,10.1c-6.3-1.3-11.8-0.1-16,5.1c0,0-0.7-0.4-1-0.7c0.1-0.3,0.3-0.6,0.3-0.9C148,6,154.9,4.5,159.6,10.1
		z"/>
	<path class="st11" d="M128.3,24.9c-0.1-1.2,0.1-2.5-1-3.4c1.2-3.7,3-7,5.7-9.7c0.3-0.4,0.7-1,1-1.5l0,0c0.3-0.4,0.7-0.7,1-1.2l0,0
		c0.3-0.1,0.7-0.1,1-0.3C134.9,14.9,130.9,19.5,128.3,24.9z"/>
	<path class="st2" d="M257.9,30c-1.3,0.1-2.8,0.1-4.2,0.3c0.3-3.7-0.6-7.5,0.9-11c0,2.1,0,4.2,0,7.9c1.8-3.3,0.3-5.8,3.3-8.3
		C257.9,23.3,257.9,26.7,257.9,30z"/>
	<path class="st2" d="M166.2,75c1.5-4.5,3-8.9,4.5-13.3c0.9,5.7-0.3,10.9-3.1,15.8C167.2,76.5,167.2,75.5,166.2,75z"/>
	<path class="st6" d="M122.4,20.1c-0.6-0.7-1.3-1.5-1.9-2.2c2.5-3.4,4.9-7.2,10.6-8.2C127.7,13.9,124.3,16.4,122.4,20.1z"/>
	<path class="st6" d="M257.9,30c0-3.4,0-6.7,0-11.3c-3,2.5-1.6,5.1-3.3,8.3c0-3.6,0-5.7,0-7.9c0-1.2,0.6-2.2,1.8-2.4
		c1.6-0.1,2.2,1.3,2.4,2.5c0.6,3.6,0.7,7.3,0.1,10.9C258.5,30.3,258.2,30.3,257.9,30z"/>
	<path class="st0" d="M272.5,51.4c-1.5-2.8-2.2-5.5,1.2-7.6c3.1,1.3,2.4,4,2.1,6.4C274.6,50.7,273.6,51.1,272.5,51.4z"/>
	<path class="st14" d="M141.6,5.7c-1.2,3.7-3.9,1.9-6.1,1.6c0.1-0.6,0.3-1,0.6-1.6c0.1-1.6,0.6-3,2.4-3.3
		C140.9,2.1,140.3,5.1,141.6,5.7L141.6,5.7z"/>
	<path class="st8" d="M216.4,19.1c0.1,3.9,0.3,7.8,0.4,11.6c-0.3,1.5-0.6,2.8-1,4.3C215.4,29.5,214.7,24.3,216.4,19.1z"/>
	<path class="st14" d="M141.6,5.7c0-0.1,0-0.4,0-0.6c0.1-1.3-0.4-3.1,1.5-3.7c0.7-0.1,1.5,0.3,1.6,1.2
		C144.9,4.9,143.5,5.5,141.6,5.7L141.6,5.7z"/>
	<path class="st7" d="M136.1,5.8c-0.1,0.6-0.3,1-0.6,1.6l0.1,0.3c-0.6,0.3-1.3,0.6-0.6,1.5l0,0c-0.4-0.1-0.7-0.1-1.2-0.3
		c-0.7,0-1.6,0.3-2.1-0.1c-0.7-0.6,0.1-1.3,0.6-1.6C133.5,6.3,134.6,5.5,136.1,5.8z"/>
	<path class="st14" d="M126.2,31.5c-0.3-2.2,0.4-4,1.9-5.5C128.3,28,128.5,30.1,126.2,31.5z"/>
	<path class="st14" d="M136.7,27.1c1.6,1.8-1.5,2.7-0.9,4.3C134.1,29.5,135.2,28.3,136.7,27.1z"/>
	<path class="st2" d="M164.3,82c-0.1-2.4,1.8-3.4,3.4-4.8C167.4,79.6,166.2,81,164.3,82z"/>
	<path class="st14" d="M140.3,20.1c-0.4,1.2-0.6,2.7-1.8,3.4C136.5,21.2,138.3,20.7,140.3,20.1z"/>
	<path class="st11" d="M162.6,12.7c-2.4,0.9-3.4,0-3.1-2.5C160.7,10.9,161.7,11.8,162.6,12.7z"/>
	<path class="st13" d="M136.2,33.9c1.3,1.6,0.1,1.9-1.2,1.9C135.5,35.2,135.9,34.5,136.2,33.9z"/>
	<path class="st14" d="M382.7,50.3c0.9-0.7,1.6-1.6,2.5-2.4C385.4,49.7,384.5,50.4,382.7,50.3z"/>
	<path class="st14" d="M147.4,1.5c0.1,0.3,0.3,0.6,0.1,0.7c-0.1,0.3-0.6,0.3-0.7,0.4c-0.1-0.3-0.3-0.6-0.1-0.9
		C146.7,1.8,147.1,1.6,147.4,1.5z"/>
	<path class="st8" d="M346,35.9c-1,0-1.6-0.3-1.9-1.3C345,34.6,345.6,35.2,346,35.9z"/>
	<path class="st14" d="M133.8,8.8c0.4,0.1,0.7,0.1,1.2,0.3c-0.3,0.4-0.7,0.7-1,1.2C133.8,9.8,133.8,9.3,133.8,8.8z"/>
	<path class="st14" d="M142.8,13.6c0,0.3,0,0.7-0.3,0.9c-0.3,0-0.6,0-0.9,0.1C142,14.3,142.5,13.9,142.8,13.6z"/>
	<path class="st14" d="M134,10.3c-0.3,0.4-0.7,1-1,1.5C133.2,11.2,133.5,10.7,134,10.3z"/>
	<path class="st14" d="M135,9.1c-0.7-0.9,0.1-1.2,0.6-1.5c0.1,0.4,0.3,0.7,0.4,1.2C135.8,9,135.3,9.1,135,9.1z"/>
	<path class="st13" d="M226.9,54.9c0.1,0.3,0.3,0.6,0.3,0.9c0,0.1-0.3,0.1-0.3,0.3C226.9,55.6,226.9,55.2,226.9,54.9z"/>
	<path class="st8" d="M163.1,39.1c0.1-4,1.9-7.5,3.7-12.4c1.9,6.4,3.3,11.5,2.7,17.1c-1.8-0.4-2.4-2.7-4.3-2.4l0,0
		c-0.3-0.4-0.6-0.7-0.9-1.2C163.8,39.8,163.4,39.4,163.1,39.1z"/>
	<path class="st13" d="M137.4,40.6c0.1-0.4,0.3-0.7,0.4-1.2C137.7,39.8,137.6,40.1,137.4,40.6z"/>
	<path class="st7" d="M164.3,40.3c0.3,0.4,0.6,0.7,0.9,1.2C164.9,41,164.6,40.6,164.3,40.3z"/>
</g>
</svg>
